<svg xmlns="http://www.w3.org/2000/svg" viewBox="0 0 64 64" width="64" height="64">
  <!-- Stems (Green) -->
  <path d="M24 60 Q 25 35 15 15" fill="none" stroke="#1b4332" stroke-width="3" stroke-linecap="round"/>
  <path d="M32 60 Q 32 30 42 10" fill="none" stroke="#1b4332" stroke-width="3" stroke-linecap="round"/>
  <path d="M40 60 Q 39 40 49 20" fill="none" stroke="#1b4332" stroke-width="3" stroke-linecap="round"/>
  
  <!-- Leaves (Green) -->
  <path d="M26 60 Q 14 43 11 28 Q 18 42 29 48" fill="#2d6a4f"/>
  <path d="M38 60 Q 50 43 53 28 Q 46 42 35 48" fill="#2d6a4f"/>
  <path d="M32 60 Q 32 40 22 25 Q 28 35 32 46" fill="#40916c"/>
  
  <!-- Golden Grains (Biji Padi) -->
  <!-- Along Stalk 1 (Left, pointing towards 15 15) -->
  <g fill="#ffd166" stroke="#c89d10" stroke-width="0.7">
    <ellipse cx="15" cy="15" rx="2" ry="4" transform="rotate(-30 15 15)"/>
    <ellipse cx="18" cy="18" rx="2" ry="4" transform="rotate(-20 18 18)"/>
    <ellipse cx="14" cy="21" rx="2" ry="4" transform="rotate(-40 14 21)"/>
    <ellipse cx="20" cy="24" rx="2" ry="4" transform="rotate(-15 20 24)"/>
    <ellipse cx="16" cy="27" rx="2" ry="4" transform="rotate(-35 16 27)"/>
    <ellipse cx="22" cy="30" rx="2" ry="4" transform="rotate(-10 22 30)"/>
    <ellipse cx="18" cy="33" rx="2" ry="4" transform="rotate(-30 18 33)"/>
    <ellipse cx="24" cy="36" rx="2" ry="4" transform="rotate(-5 24 36)"/>
    <ellipse cx="20" cy="39" rx="2" ry="4" transform="rotate(-25 20 39)"/>
  </g>
  
  <!-- Along Stalk 2 (Middle, pointing towards 42 10) -->
  <g fill="#ffb703" stroke="#d48c00" stroke-width="0.7">
    <ellipse cx="42" cy="10" rx="2" ry="4" transform="rotate(30 42 10)"/>
    <ellipse cx="39" cy="13" rx="2" ry="4" transform="rotate(20 39 13)"/>
    <ellipse cx="44" cy="16" rx="2" ry="4" transform="rotate(40 44 16)"/>
    <ellipse cx="37" cy="19" rx="2" ry="4" transform="rotate(15 37 19)"/>
    <ellipse cx="43" cy="22" rx="2" ry="4" transform="rotate(35 43 22)"/>
    <ellipse cx="36" cy="25" rx="2" ry="4" transform="rotate(10 36 25)"/>
    <ellipse cx="42" cy="28" rx="2" ry="4" transform="rotate(30 42 28)"/>
    <ellipse cx="35" cy="31" rx="2" ry="4" transform="rotate(5 35 31)"/>
    <ellipse cx="41" cy="34" rx="2" ry="4" transform="rotate(25 41 34)"/>
  </g>

  <!-- Along Stalk 3 (Right, pointing towards 49 20) -->
  <g fill="#ffd166" stroke="#c89d10" stroke-width="0.7">
    <ellipse cx="49" cy="20" rx="2" ry="4" transform="rotate(40 49 20)"/>
    <ellipse cx="46" cy="23" rx="2" ry="4" transform="rotate(30 46 23)"/>
    <ellipse cx="51" cy="26" rx="2" ry="4" transform="rotate(50 51 26)"/>
    <ellipse cx="44" cy="29" rx="2" ry="4" transform="rotate(25 44 29)"/>
    <ellipse cx="50" cy="32" rx="2" ry="4" transform="rotate(45 50 32)"/>
    <ellipse cx="43" cy="35" rx="2" ry="4" transform="rotate(20 43 35)"/>
    <ellipse cx="48" cy="38" rx="2" ry="4" transform="rotate(40 48 38)"/>
    <ellipse cx="42" cy="41" rx="2" ry="4" transform="rotate(15 42 41)"/>
    <ellipse cx="47" cy="44" rx="2" ry="4" transform="rotate(35 47 44)"/>
  </g>
</svg>
